<mxfile host="app.diagrams.net" agent="Mozilla/5.0 (Windows NT 10.0; Win64; x64) AppleWebKit/537.36 (KHTML, like Gecko) Chrome/131.0.0.0 Safari/537.36" version="24.8.6">
  <diagram name="Page-1" id="wHqGof-OoqQ8YfUpuGFb">
    <mxGraphModel dx="2284" dy="738" grid="1" gridSize="10" guides="1" tooltips="1" connect="1" arrows="1" fold="1" page="1" pageScale="1" pageWidth="850" pageHeight="1100" math="0" shadow="0">
      <root>
        <mxCell id="0" />
        <mxCell id="1" parent="0" />
        <mxCell id="lTo31LPykX4vVSw3QdY_-49" value="" style="ellipse;whiteSpace=wrap;html=1;aspect=fixed;strokeWidth=1;" parent="1" vertex="1">
          <mxGeometry x="-20" height="20" as="geometry" />
        </mxCell>
        <mxCell id="lTo31LPykX4vVSw3QdY_-22" value="" style="rounded=0;whiteSpace=wrap;html=1;" parent="1" vertex="1">
          <mxGeometry x="10" width="800" height="610" as="geometry" />
        </mxCell>
        <mxCell id="lTo31LPykX4vVSw3QdY_-3" value="" style="rounded=0;whiteSpace=wrap;html=1;" parent="1" vertex="1">
          <mxGeometry x="20" y="110" width="660" height="440" as="geometry" />
        </mxCell>
        <mxCell id="lTo31LPykX4vVSw3QdY_-4" value="" style="rounded=0;whiteSpace=wrap;html=1;strokeColor=#3333FF;" parent="1" vertex="1">
          <mxGeometry x="30" y="120" width="360" height="420" as="geometry" />
        </mxCell>
        <mxCell id="lTo31LPykX4vVSw3QdY_-32" value="" style="verticalLabelPosition=bottom;verticalAlign=top;html=1;shape=mxgraph.basic.rect;fillColor2=none;strokeWidth=1;size=20;indent=5;strokeColor=#FF3333;" parent="1" vertex="1">
          <mxGeometry x="40" y="130" width="340" height="400" as="geometry" />
        </mxCell>
        <mxCell id="lTo31LPykX4vVSw3QdY_-5" value="" style="rounded=0;whiteSpace=wrap;html=1;strokeColor=#3333FF;" parent="1" vertex="1">
          <mxGeometry x="400" y="120" width="270" height="420" as="geometry" />
        </mxCell>
        <mxCell id="lTo31LPykX4vVSw3QdY_-6" value="" style="endArrow=none;html=1;rounded=0;strokeColor=#66FF66;" parent="1" edge="1">
          <mxGeometry width="50" height="50" relative="1" as="geometry">
            <mxPoint x="410" y="130" as="sourcePoint" />
            <mxPoint x="660" y="130" as="targetPoint" />
          </mxGeometry>
        </mxCell>
        <mxCell id="lTo31LPykX4vVSw3QdY_-7" value="" style="endArrow=none;html=1;rounded=0;strokeColor=#66FF66;" parent="1" edge="1">
          <mxGeometry width="50" height="50" relative="1" as="geometry">
            <mxPoint x="410" y="530" as="sourcePoint" />
            <mxPoint x="660" y="530" as="targetPoint" />
          </mxGeometry>
        </mxCell>
        <mxCell id="lTo31LPykX4vVSw3QdY_-8" value="" style="endArrow=none;html=1;rounded=0;strokeColor=#66FF66;" parent="1" edge="1">
          <mxGeometry width="50" height="50" relative="1" as="geometry">
            <mxPoint x="410" y="170" as="sourcePoint" />
            <mxPoint x="660" y="170" as="targetPoint" />
          </mxGeometry>
        </mxCell>
        <mxCell id="lTo31LPykX4vVSw3QdY_-9" value="" style="endArrow=none;html=1;rounded=0;strokeColor=#66FF66;" parent="1" edge="1">
          <mxGeometry width="50" height="50" relative="1" as="geometry">
            <mxPoint x="410" y="210" as="sourcePoint" />
            <mxPoint x="660" y="210" as="targetPoint" />
          </mxGeometry>
        </mxCell>
        <mxCell id="lTo31LPykX4vVSw3QdY_-10" value="" style="endArrow=none;html=1;rounded=0;strokeColor=#66FF66;" parent="1" edge="1">
          <mxGeometry width="50" height="50" relative="1" as="geometry">
            <mxPoint x="410" y="250" as="sourcePoint" />
            <mxPoint x="660" y="250" as="targetPoint" />
          </mxGeometry>
        </mxCell>
        <mxCell id="lTo31LPykX4vVSw3QdY_-11" value="" style="endArrow=none;html=1;rounded=0;strokeColor=#66FF66;" parent="1" edge="1">
          <mxGeometry width="50" height="50" relative="1" as="geometry">
            <mxPoint x="410" y="290" as="sourcePoint" />
            <mxPoint x="660" y="290" as="targetPoint" />
          </mxGeometry>
        </mxCell>
        <mxCell id="lTo31LPykX4vVSw3QdY_-12" value="" style="endArrow=none;html=1;rounded=0;strokeColor=#66FF66;" parent="1" edge="1">
          <mxGeometry width="50" height="50" relative="1" as="geometry">
            <mxPoint x="410" y="329.5" as="sourcePoint" />
            <mxPoint x="660" y="330" as="targetPoint" />
          </mxGeometry>
        </mxCell>
        <mxCell id="lTo31LPykX4vVSw3QdY_-13" value="" style="endArrow=none;html=1;rounded=0;strokeColor=#66FF66;" parent="1" edge="1">
          <mxGeometry width="50" height="50" relative="1" as="geometry">
            <mxPoint x="410" y="370" as="sourcePoint" />
            <mxPoint x="660" y="370" as="targetPoint" />
          </mxGeometry>
        </mxCell>
        <mxCell id="lTo31LPykX4vVSw3QdY_-14" value="" style="endArrow=none;html=1;rounded=0;strokeColor=#66FF66;" parent="1" edge="1">
          <mxGeometry width="50" height="50" relative="1" as="geometry">
            <mxPoint x="410" y="410" as="sourcePoint" />
            <mxPoint x="660" y="410" as="targetPoint" />
          </mxGeometry>
        </mxCell>
        <mxCell id="lTo31LPykX4vVSw3QdY_-15" value="" style="endArrow=none;html=1;rounded=0;strokeColor=#66FF66;" parent="1" edge="1">
          <mxGeometry width="50" height="50" relative="1" as="geometry">
            <mxPoint x="410" y="450" as="sourcePoint" />
            <mxPoint x="660" y="450" as="targetPoint" />
          </mxGeometry>
        </mxCell>
        <mxCell id="lTo31LPykX4vVSw3QdY_-16" value="" style="endArrow=none;html=1;rounded=0;strokeColor=#66FF66;" parent="1" edge="1">
          <mxGeometry width="50" height="50" relative="1" as="geometry">
            <mxPoint x="410" y="490" as="sourcePoint" />
            <mxPoint x="660" y="490" as="targetPoint" />
          </mxGeometry>
        </mxCell>
        <mxCell id="lTo31LPykX4vVSw3QdY_-17" value="" style="endArrow=none;html=1;rounded=0;strokeColor=#66FF66;" parent="1" edge="1">
          <mxGeometry width="50" height="50" relative="1" as="geometry">
            <mxPoint x="410" y="130" as="sourcePoint" />
            <mxPoint x="410" y="530" as="targetPoint" />
          </mxGeometry>
        </mxCell>
        <mxCell id="lTo31LPykX4vVSw3QdY_-18" value="" style="endArrow=none;html=1;rounded=0;strokeColor=#66FF66;" parent="1" edge="1">
          <mxGeometry width="50" height="50" relative="1" as="geometry">
            <mxPoint x="660" y="130" as="sourcePoint" />
            <mxPoint x="660" y="530" as="targetPoint" />
          </mxGeometry>
        </mxCell>
        <mxCell id="lTo31LPykX4vVSw3QdY_-19" value="" style="endArrow=none;html=1;rounded=0;strokeColor=#66FF66;" parent="1" edge="1">
          <mxGeometry width="50" height="50" relative="1" as="geometry">
            <mxPoint x="609" y="130" as="sourcePoint" />
            <mxPoint x="609" y="530" as="targetPoint" />
          </mxGeometry>
        </mxCell>
        <mxCell id="lTo31LPykX4vVSw3QdY_-20" value="" style="endArrow=none;html=1;rounded=0;strokeColor=#66FF66;" parent="1" edge="1">
          <mxGeometry width="50" height="50" relative="1" as="geometry">
            <mxPoint x="532.5" y="130" as="sourcePoint" />
            <mxPoint x="532.5" y="530" as="targetPoint" />
          </mxGeometry>
        </mxCell>
        <mxCell id="lTo31LPykX4vVSw3QdY_-21" value="" style="endArrow=none;html=1;rounded=0;strokeColor=#66FF66;" parent="1" edge="1">
          <mxGeometry width="50" height="50" relative="1" as="geometry">
            <mxPoint x="456" y="130" as="sourcePoint" />
            <mxPoint x="456" y="530" as="targetPoint" />
            <Array as="points">
              <mxPoint x="456" y="330" />
            </Array>
          </mxGeometry>
        </mxCell>
        <mxCell id="lTo31LPykX4vVSw3QdY_-23" value="tk.Tk" style="whiteSpace=wrap;html=1;rounded=1;arcSize=50;align=center;verticalAlign=middle;strokeWidth=1;autosize=1;spacing=4;treeFolding=1;treeMoving=1;newEdgeStyle={&quot;edgeStyle&quot;:&quot;entityRelationEdgeStyle&quot;,&quot;startArrow&quot;:&quot;none&quot;,&quot;endArrow&quot;:&quot;none&quot;,&quot;segment&quot;:10,&quot;curved&quot;:1,&quot;sourcePerimeterSpacing&quot;:0,&quot;targetPerimeterSpacing&quot;:0};fontSize=18;" parent="1" vertex="1">
          <mxGeometry x="200" y="10" width="80" height="40" as="geometry" />
        </mxCell>
        <mxCell id="lTo31LPykX4vVSw3QdY_-24" value="" style="edgeStyle=entityRelationEdgeStyle;startArrow=none;endArrow=none;segment=10;curved=1;sourcePerimeterSpacing=0;targetPerimeterSpacing=0;rounded=0;entryX=0.25;entryY=1;entryDx=0;entryDy=0;exitX=0.271;exitY=0.007;exitDx=0;exitDy=0;exitPerimeter=0;" parent="1" source="lTo31LPykX4vVSw3QdY_-3" target="lTo31LPykX4vVSw3QdY_-23" edge="1">
          <mxGeometry relative="1" as="geometry">
            <mxPoint x="310" y="110" as="sourcePoint" />
            <mxPoint x="375" y="55" as="targetPoint" />
          </mxGeometry>
        </mxCell>
        <mxCell id="lTo31LPykX4vVSw3QdY_-26" value="tk.Frame" style="whiteSpace=wrap;html=1;rounded=1;arcSize=50;align=center;verticalAlign=middle;strokeWidth=1;autosize=1;spacing=4;treeFolding=1;treeMoving=1;newEdgeStyle={&quot;edgeStyle&quot;:&quot;entityRelationEdgeStyle&quot;,&quot;startArrow&quot;:&quot;none&quot;,&quot;endArrow&quot;:&quot;none&quot;,&quot;segment&quot;:10,&quot;curved&quot;:1,&quot;sourcePerimeterSpacing&quot;:0,&quot;targetPerimeterSpacing&quot;:0};strokeColor=#3333FF;fontSize=18;" parent="1" vertex="1">
          <mxGeometry x="13" y="40" width="120" height="40" as="geometry" />
        </mxCell>
        <mxCell id="lTo31LPykX4vVSw3QdY_-27" value="" style="edgeStyle=entityRelationEdgeStyle;startArrow=none;endArrow=none;segment=10;curved=1;sourcePerimeterSpacing=0;targetPerimeterSpacing=0;rounded=0;exitX=0.392;exitY=-0.005;exitDx=0;exitDy=0;exitPerimeter=0;strokeColor=#3333FF;" parent="1" target="lTo31LPykX4vVSw3QdY_-26" edge="1" source="lTo31LPykX4vVSw3QdY_-4">
          <mxGeometry relative="1" as="geometry">
            <mxPoint x="69.99999999999991" y="119.99999999999997" as="sourcePoint" />
            <Array as="points">
              <mxPoint x="97.16" y="102.84" />
            </Array>
          </mxGeometry>
        </mxCell>
        <mxCell id="lTo31LPykX4vVSw3QdY_-28" value="tk.Frame" style="whiteSpace=wrap;html=1;rounded=1;arcSize=50;align=center;verticalAlign=middle;strokeWidth=1;autosize=1;spacing=4;treeFolding=1;treeMoving=1;newEdgeStyle={&quot;edgeStyle&quot;:&quot;entityRelationEdgeStyle&quot;,&quot;startArrow&quot;:&quot;none&quot;,&quot;endArrow&quot;:&quot;none&quot;,&quot;segment&quot;:10,&quot;curved&quot;:1,&quot;sourcePerimeterSpacing&quot;:0,&quot;targetPerimeterSpacing&quot;:0};strokeColor=#3333FF;fontSize=18;" parent="1" vertex="1">
          <mxGeometry x="495" y="55" width="120" height="40" as="geometry" />
        </mxCell>
        <mxCell id="lTo31LPykX4vVSw3QdY_-29" value="" style="edgeStyle=entityRelationEdgeStyle;startArrow=none;endArrow=none;segment=10;curved=1;sourcePerimeterSpacing=0;targetPerimeterSpacing=0;rounded=0;exitX=0.205;exitY=-0.002;exitDx=0;exitDy=0;exitPerimeter=0;entryX=0;entryY=0.5;entryDx=0;entryDy=0;strokeColor=#3333FF;" parent="1" source="lTo31LPykX4vVSw3QdY_-5" target="lTo31LPykX4vVSw3QdY_-28" edge="1">
          <mxGeometry relative="1" as="geometry">
            <mxPoint x="550" y="120.00000000000003" as="sourcePoint" />
            <Array as="points">
              <mxPoint x="490" y="100" />
              <mxPoint x="550" y="100" />
              <mxPoint x="530" y="110" />
              <mxPoint x="500" y="100" />
              <mxPoint x="490" y="110" />
            </Array>
          </mxGeometry>
        </mxCell>
        <mxCell id="lTo31LPykX4vVSw3QdY_-30" value="grid" style="whiteSpace=wrap;html=1;rounded=1;arcSize=50;align=center;verticalAlign=middle;strokeWidth=1;autosize=1;spacing=4;treeFolding=1;treeMoving=1;newEdgeStyle={&quot;edgeStyle&quot;:&quot;entityRelationEdgeStyle&quot;,&quot;startArrow&quot;:&quot;none&quot;,&quot;endArrow&quot;:&quot;none&quot;,&quot;segment&quot;:10,&quot;curved&quot;:1,&quot;sourcePerimeterSpacing&quot;:0,&quot;targetPerimeterSpacing&quot;:0};strokeColor=#66FF66;fontSize=18;" parent="1" vertex="1">
          <mxGeometry x="455" y="560" width="70" height="40" as="geometry" />
        </mxCell>
        <mxCell id="lTo31LPykX4vVSw3QdY_-31" value="" style="edgeStyle=entityRelationEdgeStyle;startArrow=none;endArrow=none;segment=10;curved=1;sourcePerimeterSpacing=0;targetPerimeterSpacing=0;rounded=0;strokeColor=#66FF66;entryX=0;entryY=0.5;entryDx=0;entryDy=0;" parent="1" target="lTo31LPykX4vVSw3QdY_-30" edge="1">
          <mxGeometry relative="1" as="geometry">
            <mxPoint x="420" y="530" as="sourcePoint" />
            <Array as="points">
              <mxPoint x="490" y="530" />
              <mxPoint x="455" y="560" />
              <mxPoint x="440" y="570" />
              <mxPoint x="370" y="570" />
            </Array>
          </mxGeometry>
        </mxCell>
        <mxCell id="lTo31LPykX4vVSw3QdY_-33" value="tk.Canvas" style="whiteSpace=wrap;html=1;rounded=1;arcSize=50;align=center;verticalAlign=middle;strokeWidth=1;autosize=1;spacing=4;treeFolding=1;treeMoving=1;newEdgeStyle={&quot;edgeStyle&quot;:&quot;entityRelationEdgeStyle&quot;,&quot;startArrow&quot;:&quot;none&quot;,&quot;endArrow&quot;:&quot;none&quot;,&quot;segment&quot;:10,&quot;curved&quot;:1,&quot;sourcePerimeterSpacing&quot;:0,&quot;targetPerimeterSpacing&quot;:0};strokeColor=#FF3333;fontSize=18;" parent="1" vertex="1">
          <mxGeometry x="128" y="560" width="120" height="40" as="geometry" />
        </mxCell>
        <mxCell id="lTo31LPykX4vVSw3QdY_-34" value="" style="edgeStyle=entityRelationEdgeStyle;startArrow=none;endArrow=none;segment=10;curved=1;sourcePerimeterSpacing=0;targetPerimeterSpacing=0;rounded=0;entryX=0;entryY=0.5;entryDx=0;entryDy=0;exitX=0.2;exitY=1;exitDx=0;exitDy=0;exitPerimeter=0;strokeColor=#FF3333;" parent="1" source="lTo31LPykX4vVSw3QdY_-32" target="lTo31LPykX4vVSw3QdY_-33" edge="1">
          <mxGeometry relative="1" as="geometry">
            <mxPoint x="170" y="622" as="sourcePoint" />
            <Array as="points">
              <mxPoint x="100" y="620" />
            </Array>
          </mxGeometry>
        </mxCell>
        <mxCell id="lTo31LPykX4vVSw3QdY_-35" value="" style="endArrow=none;html=1;rounded=0;" parent="1" edge="1">
          <mxGeometry width="50" height="50" relative="1" as="geometry">
            <mxPoint x="130" y="430" as="sourcePoint" />
            <mxPoint x="290" y="350" as="targetPoint" />
          </mxGeometry>
        </mxCell>
        <mxCell id="lTo31LPykX4vVSw3QdY_-36" value="A" style="text;html=1;align=center;verticalAlign=middle;whiteSpace=wrap;rounded=0;fontSize=16;" parent="1" vertex="1">
          <mxGeometry x="113" y="430" width="20" height="30" as="geometry" />
        </mxCell>
        <mxCell id="lTo31LPykX4vVSw3QdY_-37" value="B" style="text;html=1;align=center;verticalAlign=middle;whiteSpace=wrap;rounded=0;fontSize=16;" parent="1" vertex="1">
          <mxGeometry x="280" y="360" width="20" height="30" as="geometry" />
        </mxCell>
        <mxCell id="lTo31LPykX4vVSw3QdY_-38" value="" style="endArrow=none;dashed=1;html=1;rounded=0;" parent="1" edge="1">
          <mxGeometry width="50" height="50" relative="1" as="geometry">
            <mxPoint x="130" y="430" as="sourcePoint" />
            <mxPoint x="300" y="430" as="targetPoint" />
          </mxGeometry>
        </mxCell>
        <mxCell id="lTo31LPykX4vVSw3QdY_-41" value="" style="verticalLabelPosition=bottom;verticalAlign=top;html=1;shape=mxgraph.basic.partConcEllipse;startAngle=0.125;endAngle=0.26900770392397483;arcWidth=0;dashed=1;dashPattern=1 4;" parent="1" vertex="1">
          <mxGeometry x="129" y="374" width="100" height="100" as="geometry" />
        </mxCell>
        <mxCell id="lTo31LPykX4vVSw3QdY_-42" value="tk.Canvas.create_line" style="whiteSpace=wrap;html=1;rounded=1;arcSize=50;align=center;verticalAlign=middle;strokeWidth=1;autosize=1;spacing=4;treeFolding=1;treeMoving=1;newEdgeStyle={&quot;edgeStyle&quot;:&quot;entityRelationEdgeStyle&quot;,&quot;startArrow&quot;:&quot;none&quot;,&quot;endArrow&quot;:&quot;none&quot;,&quot;segment&quot;:10,&quot;curved&quot;:1,&quot;sourcePerimeterSpacing&quot;:0,&quot;targetPerimeterSpacing&quot;:0};fontSize=18;" parent="1" vertex="1">
          <mxGeometry x="158" y="295" width="220" height="40" as="geometry" />
        </mxCell>
        <mxCell id="lTo31LPykX4vVSw3QdY_-43" value="" style="edgeStyle=entityRelationEdgeStyle;startArrow=none;endArrow=none;segment=10;curved=1;sourcePerimeterSpacing=0;targetPerimeterSpacing=0;rounded=0;entryX=0.25;entryY=1;entryDx=0;entryDy=0;" parent="1" target="lTo31LPykX4vVSw3QdY_-42" edge="1">
          <mxGeometry relative="1" as="geometry">
            <mxPoint x="180" y="400" as="sourcePoint" />
          </mxGeometry>
        </mxCell>
        <mxCell id="lTo31LPykX4vVSw3QdY_-44" value="tk.Canvas.create_text" style="whiteSpace=wrap;html=1;rounded=1;arcSize=50;align=center;verticalAlign=middle;strokeWidth=1;autosize=1;spacing=4;treeFolding=1;treeMoving=1;newEdgeStyle={&quot;edgeStyle&quot;:&quot;entityRelationEdgeStyle&quot;,&quot;startArrow&quot;:&quot;none&quot;,&quot;endArrow&quot;:&quot;none&quot;,&quot;segment&quot;:10,&quot;curved&quot;:1,&quot;sourcePerimeterSpacing&quot;:0,&quot;targetPerimeterSpacing&quot;:0};fontSize=18;" parent="1" vertex="1">
          <mxGeometry x="145" y="485" width="220" height="40" as="geometry" />
        </mxCell>
        <mxCell id="lTo31LPykX4vVSw3QdY_-45" value="" style="edgeStyle=entityRelationEdgeStyle;startArrow=none;endArrow=none;segment=10;curved=1;sourcePerimeterSpacing=0;targetPerimeterSpacing=0;rounded=0;exitX=1;exitY=0.5;exitDx=0;exitDy=0;entryX=0.05;entryY=0.05;entryDx=0;entryDy=0;entryPerimeter=0;" parent="1" source="lTo31LPykX4vVSw3QdY_-36" target="lTo31LPykX4vVSw3QdY_-44" edge="1">
          <mxGeometry relative="1" as="geometry">
            <mxPoint x="160" y="522" as="sourcePoint" />
            <Array as="points">
              <mxPoint x="130" y="460" />
            </Array>
          </mxGeometry>
        </mxCell>
        <mxCell id="lTo31LPykX4vVSw3QdY_-46" value="tk.Canvas.create_arc" style="whiteSpace=wrap;html=1;rounded=1;arcSize=50;align=center;verticalAlign=middle;strokeWidth=1;autosize=1;spacing=4;treeFolding=1;treeMoving=1;newEdgeStyle={&quot;edgeStyle&quot;:&quot;entityRelationEdgeStyle&quot;,&quot;startArrow&quot;:&quot;none&quot;,&quot;endArrow&quot;:&quot;none&quot;,&quot;segment&quot;:10,&quot;curved&quot;:1,&quot;sourcePerimeterSpacing&quot;:0,&quot;targetPerimeterSpacing&quot;:0};fontSize=18;" parent="1" vertex="1">
          <mxGeometry x="165" y="435" width="210" height="40" as="geometry" />
        </mxCell>
        <mxCell id="lTo31LPykX4vVSw3QdY_-47" value="" style="edgeStyle=entityRelationEdgeStyle;startArrow=none;endArrow=none;segment=10;curved=1;sourcePerimeterSpacing=0;targetPerimeterSpacing=0;rounded=0;exitX=0.93;exitY=0.25;exitDx=0;exitDy=0;exitPerimeter=0;entryX=0.5;entryY=0;entryDx=0;entryDy=0;" parent="1" source="lTo31LPykX4vVSw3QdY_-41" target="lTo31LPykX4vVSw3QdY_-46" edge="1">
          <mxGeometry relative="1" as="geometry">
            <mxPoint x="210" y="482" as="sourcePoint" />
            <Array as="points">
              <mxPoint x="240" y="450" />
            </Array>
          </mxGeometry>
        </mxCell>
        <mxCell id="lTo31LPykX4vVSw3QdY_-50" value="" style="ellipse;whiteSpace=wrap;html=1;aspect=fixed;strokeWidth=4;" parent="1" vertex="1">
          <mxGeometry x="100" y="210" width="4" height="4" as="geometry" />
        </mxCell>
        <mxCell id="lTo31LPykX4vVSw3QdY_-51" value="tk.Canvas.create_oval" style="whiteSpace=wrap;html=1;rounded=1;arcSize=50;align=center;verticalAlign=middle;strokeWidth=1;autosize=1;spacing=4;treeFolding=1;treeMoving=1;newEdgeStyle={&quot;edgeStyle&quot;:&quot;entityRelationEdgeStyle&quot;,&quot;startArrow&quot;:&quot;none&quot;,&quot;endArrow&quot;:&quot;none&quot;,&quot;segment&quot;:10,&quot;curved&quot;:1,&quot;sourcePerimeterSpacing&quot;:0,&quot;targetPerimeterSpacing&quot;:0};fontSize=18;" parent="1" vertex="1">
          <mxGeometry x="130" y="148.75" width="220" height="40" as="geometry" />
        </mxCell>
        <mxCell id="lTo31LPykX4vVSw3QdY_-52" value="" style="edgeStyle=entityRelationEdgeStyle;startArrow=none;endArrow=none;segment=10;curved=1;sourcePerimeterSpacing=0;targetPerimeterSpacing=0;rounded=0;" parent="1" target="lTo31LPykX4vVSw3QdY_-51" edge="1">
          <mxGeometry relative="1" as="geometry">
            <mxPoint x="104" y="210" as="sourcePoint" />
          </mxGeometry>
        </mxCell>
        <mxCell id="lTo31LPykX4vVSw3QdY_-53" value="" style="rounded=0;whiteSpace=wrap;html=1;" parent="1" vertex="1">
          <mxGeometry x="70" y="280" width="70" height="30" as="geometry" />
        </mxCell>
        <mxCell id="lTo31LPykX4vVSw3QdY_-54" value="tk.Canvas.create_rectangle" style="whiteSpace=wrap;html=1;rounded=1;arcSize=50;align=center;verticalAlign=middle;strokeWidth=1;autosize=1;spacing=4;treeFolding=1;treeMoving=1;newEdgeStyle={&quot;edgeStyle&quot;:&quot;entityRelationEdgeStyle&quot;,&quot;startArrow&quot;:&quot;none&quot;,&quot;endArrow&quot;:&quot;none&quot;,&quot;segment&quot;:10,&quot;curved&quot;:1,&quot;sourcePerimeterSpacing&quot;:0,&quot;targetPerimeterSpacing&quot;:0};fontSize=18;" parent="1" vertex="1">
          <mxGeometry x="120" y="210" width="260" height="40" as="geometry" />
        </mxCell>
        <mxCell id="lTo31LPykX4vVSw3QdY_-55" value="" style="edgeStyle=entityRelationEdgeStyle;startArrow=none;endArrow=none;segment=10;curved=1;sourcePerimeterSpacing=0;targetPerimeterSpacing=0;rounded=0;entryX=0.25;entryY=1;entryDx=0;entryDy=0;exitX=1;exitY=0.75;exitDx=0;exitDy=0;" parent="1" target="lTo31LPykX4vVSw3QdY_-54" edge="1" source="lTo31LPykX4vVSw3QdY_-53">
          <mxGeometry relative="1" as="geometry">
            <mxPoint x="150" y="256" as="sourcePoint" />
            <Array as="points">
              <mxPoint x="150" y="230" />
            </Array>
          </mxGeometry>
        </mxCell>
        <mxCell id="lTo31LPykX4vVSw3QdY_-56" value="Input" style="text;html=1;align=center;verticalAlign=middle;whiteSpace=wrap;rounded=0;fontSize=15;" parent="1" vertex="1">
          <mxGeometry x="415" y="138" width="40" height="30" as="geometry" />
        </mxCell>
        <mxCell id="lTo31LPykX4vVSw3QdY_-57" value="tk.Text" style="whiteSpace=wrap;html=1;rounded=1;arcSize=50;align=center;verticalAlign=middle;strokeWidth=1;autosize=1;spacing=4;treeFolding=1;treeMoving=1;newEdgeStyle={&quot;edgeStyle&quot;:&quot;entityRelationEdgeStyle&quot;,&quot;startArrow&quot;:&quot;none&quot;,&quot;endArrow&quot;:&quot;none&quot;,&quot;segment&quot;:10,&quot;curved&quot;:1,&quot;sourcePerimeterSpacing&quot;:0,&quot;targetPerimeterSpacing&quot;:0};fontSize=18;" parent="1" vertex="1">
          <mxGeometry x="310" y="55" width="100" height="40" as="geometry" />
        </mxCell>
        <mxCell id="lTo31LPykX4vVSw3QdY_-58" value="" style="edgeStyle=entityRelationEdgeStyle;startArrow=none;endArrow=none;segment=10;curved=1;sourcePerimeterSpacing=0;targetPerimeterSpacing=0;rounded=0;exitX=0.375;exitY=0;exitDx=0;exitDy=0;exitPerimeter=0;" parent="1" source="lTo31LPykX4vVSw3QdY_-56" target="lTo31LPykX4vVSw3QdY_-57" edge="1">
          <mxGeometry relative="1" as="geometry">
            <mxPoint x="640" y="152" as="sourcePoint" />
            <Array as="points">
              <mxPoint x="450" y="150" />
            </Array>
          </mxGeometry>
        </mxCell>
        <mxCell id="lTo31LPykX4vVSw3QdY_-64" value="" style="group;fontSize=12;" parent="1" vertex="1" connectable="0">
          <mxGeometry x="470" y="138" width="187.5" height="61.5" as="geometry" />
        </mxCell>
        <mxCell id="lTo31LPykX4vVSw3QdY_-60" value="classification values" style="text;html=1;align=center;verticalAlign=middle;whiteSpace=wrap;rounded=0;fontSize=15;" parent="lTo31LPykX4vVSw3QdY_-64" vertex="1">
          <mxGeometry x="-14" width="135" height="30" as="geometry" />
        </mxCell>
        <mxCell id="lTo31LPykX4vVSw3QdY_-62" value="" style="whiteSpace=wrap;html=1;aspect=fixed;" parent="lTo31LPykX4vVSw3QdY_-64" vertex="1">
          <mxGeometry x="122" y="8.5" width="13" height="13" as="geometry" />
        </mxCell>
        <mxCell id="lTo31LPykX4vVSw3QdY_-74" value="" style="group" parent="lTo31LPykX4vVSw3QdY_-64" vertex="1" connectable="0">
          <mxGeometry x="-75.5" y="27.5" width="260" height="40" as="geometry" />
        </mxCell>
        <mxCell id="lTo31LPykX4vVSw3QdY_-70" value="" style="rounded=0;whiteSpace=wrap;html=1;fillColor=#CCCCCC;" parent="lTo31LPykX4vVSw3QdY_-74" vertex="1">
          <mxGeometry x="20" y="30" width="240" height="10" as="geometry" />
        </mxCell>
        <mxCell id="lTo31LPykX4vVSw3QdY_-71" value="" style="rounded=0;whiteSpace=wrap;html=1;" parent="lTo31LPykX4vVSw3QdY_-74" vertex="1">
          <mxGeometry x="150" y="30" width="20" height="10" as="geometry" />
        </mxCell>
        <mxCell id="lTo31LPykX4vVSw3QdY_-72" value="&lt;font style=&quot;font-size: 15px;&quot;&gt;a&lt;/font&gt;" style="text;html=1;align=center;verticalAlign=middle;whiteSpace=wrap;rounded=0;" parent="lTo31LPykX4vVSw3QdY_-74" vertex="1">
          <mxGeometry width="60" height="30" as="geometry" />
        </mxCell>
        <mxCell id="lTo31LPykX4vVSw3QdY_-73" value="&lt;font style=&quot;font-size: 15px;&quot;&gt;1.41&lt;/font&gt;" style="text;html=1;align=center;verticalAlign=middle;whiteSpace=wrap;rounded=0;" parent="lTo31LPykX4vVSw3QdY_-74" vertex="1">
          <mxGeometry x="130" width="60" height="30" as="geometry" />
        </mxCell>
        <mxCell id="lTo31LPykX4vVSw3QdY_-67" value="Exit" style="rounded=1;whiteSpace=wrap;html=1;fontSize=15;" parent="lTo31LPykX4vVSw3QdY_-64" vertex="1">
          <mxGeometry x="144.5" y="5" width="40" height="20" as="geometry" />
        </mxCell>
        <mxCell id="lTo31LPykX4vVSw3QdY_-65" value="tk.Checkbutton" style="whiteSpace=wrap;html=1;rounded=1;arcSize=50;align=center;verticalAlign=middle;strokeWidth=1;autosize=1;spacing=4;treeFolding=1;treeMoving=1;newEdgeStyle={&quot;edgeStyle&quot;:&quot;entityRelationEdgeStyle&quot;,&quot;startArrow&quot;:&quot;none&quot;,&quot;endArrow&quot;:&quot;none&quot;,&quot;segment&quot;:10,&quot;curved&quot;:1,&quot;sourcePerimeterSpacing&quot;:0,&quot;targetPerimeterSpacing&quot;:0};fontSize=18;" parent="1" vertex="1">
          <mxGeometry x="640" y="30" width="160" height="40" as="geometry" />
        </mxCell>
        <mxCell id="lTo31LPykX4vVSw3QdY_-66" value="" style="edgeStyle=entityRelationEdgeStyle;startArrow=none;endArrow=none;segment=10;curved=1;sourcePerimeterSpacing=0;targetPerimeterSpacing=0;rounded=0;" parent="1" target="lTo31LPykX4vVSw3QdY_-65" edge="1">
          <mxGeometry relative="1" as="geometry">
            <mxPoint x="590" y="140" as="sourcePoint" />
            <Array as="points">
              <mxPoint x="670" y="100" />
            </Array>
          </mxGeometry>
        </mxCell>
        <mxCell id="lTo31LPykX4vVSw3QdY_-68" value="tk.Button" style="whiteSpace=wrap;html=1;rounded=1;arcSize=50;align=center;verticalAlign=middle;strokeWidth=1;autosize=1;spacing=4;treeFolding=1;treeMoving=1;newEdgeStyle={&quot;edgeStyle&quot;:&quot;entityRelationEdgeStyle&quot;,&quot;startArrow&quot;:&quot;none&quot;,&quot;endArrow&quot;:&quot;none&quot;,&quot;segment&quot;:10,&quot;curved&quot;:1,&quot;sourcePerimeterSpacing&quot;:0,&quot;targetPerimeterSpacing&quot;:0};fontSize=18;" parent="1" vertex="1">
          <mxGeometry x="690" y="90" width="120" height="40" as="geometry" />
        </mxCell>
        <mxCell id="lTo31LPykX4vVSw3QdY_-69" value="" style="edgeStyle=entityRelationEdgeStyle;startArrow=none;endArrow=none;segment=10;curved=1;sourcePerimeterSpacing=0;targetPerimeterSpacing=0;rounded=0;exitX=1;exitY=0.5;exitDx=0;exitDy=0;" parent="1" source="lTo31LPykX4vVSw3QdY_-67" target="lTo31LPykX4vVSw3QdY_-68" edge="1">
          <mxGeometry relative="1" as="geometry">
            <mxPoint x="690" y="152" as="sourcePoint" />
          </mxGeometry>
        </mxCell>
        <mxCell id="lTo31LPykX4vVSw3QdY_-75" value="tk.Scale" style="whiteSpace=wrap;html=1;rounded=1;arcSize=50;align=center;verticalAlign=middle;strokeWidth=1;autosize=1;spacing=4;treeFolding=1;treeMoving=1;newEdgeStyle={&quot;edgeStyle&quot;:&quot;entityRelationEdgeStyle&quot;,&quot;startArrow&quot;:&quot;none&quot;,&quot;endArrow&quot;:&quot;none&quot;,&quot;segment&quot;:10,&quot;curved&quot;:1,&quot;sourcePerimeterSpacing&quot;:0,&quot;targetPerimeterSpacing&quot;:0};fontSize=18;" parent="1" vertex="1">
          <mxGeometry x="695" y="143" width="110" height="40" as="geometry" />
        </mxCell>
        <mxCell id="lTo31LPykX4vVSw3QdY_-76" value="" style="edgeStyle=entityRelationEdgeStyle;startArrow=none;endArrow=none;segment=10;curved=1;sourcePerimeterSpacing=0;targetPerimeterSpacing=0;rounded=0;exitX=1;exitY=0.25;exitDx=0;exitDy=0;" parent="1" source="lTo31LPykX4vVSw3QdY_-70" target="lTo31LPykX4vVSw3QdY_-75" edge="1">
          <mxGeometry relative="1" as="geometry">
            <mxPoint x="690" y="189.75" as="sourcePoint" />
          </mxGeometry>
        </mxCell>
      </root>
    </mxGraphModel>
  </diagram>
</mxfile>
